<?xml version="1.0" standalone="no"?><!DOCTYPE svg PUBLIC "-//W3C//DTD SVG 1.1//EN" "http://www.w3.org/Graphics/SVG/1.1/DTD/svg11.dtd"><svg t="1733984352974" class="icon" viewBox="0 0 1024 1024" version="1.1" xmlns="http://www.w3.org/2000/svg" p-id="8496" xmlns:xlink="http://www.w3.org/1999/xlink" width="200" height="200"><path d="M591.957333 313.301333h5.589334l5.717333 1.152a47.829333 47.829333 0 0 1 21.333333 15.018667l14.762667 17.066667c5.12 6.272 10.026667 12.8 15.018667 19.285333l4.053333 6.314667 3.157333 6.485333h117.546667l6.997333 0.554667a29.866667 29.866667 0 0 1 20.565334 10.965333 41.770667 41.770667 0 0 1 7.68 26.282667 41.088 41.088 0 0 1-7.68 25.6 30.464 30.464 0 0 1-21.333334 11.050666l-7.125333 0.384h-35.925333l-2.688 9.898667q-5.76 18.901333-13.269334 37.205333l-7.552 17.066667-8.064 16.170667a354.133333 354.133333 0 0 1-28.757333 44.8l-12.8 15.744 7.424 5.205333 9.984 6.485333 10.325333 6.186667 21.333334 11.733333a407.850667 407.850667 0 0 0 71.125333 28.373334 45.354667 45.354667 0 0 1 24.789333 17.664 36.949333 36.949333 0 0 1 1.877334 32.341333 36.522667 36.522667 0 0 1-51.882667 22.144 500.778667 500.778667 0 0 1-89.258667-35.712 420.949333 420.949333 0 0 1-59.733333-37.248l-4.266667-3.498667-14.549333 10.325334-12.544 8.064a617.984 617.984 0 0 1-81.536 42.666666c-14.165333 6.058667-28.074667 11.306667-41.984 15.914667a132.650667 132.650667 0 0 1-12.8 3.157333l-6.016 0.810667h-5.802667l-5.802666-0.810667-4.266667-1.365333a26.88 26.88 0 0 1-12.8-10.709333 59.264 59.264 0 0 1-5.845333-12.8 39.936 39.936 0 0 1 0.725333-30.805334 43.306667 43.306667 0 0 1 29.866667-19.754666 547.029333 547.029333 0 0 0 68.864-27.008 303.274667 303.274667 0 0 0 45.952-27.477334l3.754666-2.901333-10.112-12.117333-9.088-11.989334a323.242667 323.242667 0 0 1-24.064-38.144 401.066667 401.066667 0 0 1-19.456-42.026666q-6.016-15.232-11.050666-30.805334l-2.176-6.741333h-34.346667l-5.717333-0.341333a29.866667 29.866667 0 0 1-22.357334-11.605334 42.666667 42.666667 0 0 1-6.954666-25.6 43.776 43.776 0 0 1 6.954666-25.6 29.141333 29.141333 0 0 1 21.333334-11.434666l7.424-0.469334h120.917333l-3.754667-4.650666a52.522667 52.522667 0 0 1-7.296-12.8l-1.749333-6.314667-0.384-6.314667a34.730667 34.730667 0 0 1 16.426667-27.136 40.746667 40.746667 0 0 1 21.290666-7.936z m71.466667 140.544h-105.301333l4.266666 11.392c3.626667 9.045333 7.552 17.578667 11.733334 25.6l6.528 11.776a278.698667 278.698667 0 0 0 29.568 40.618667l1.877333 2.005333 1.621333-1.664a267.434667 267.434667 0 0 0 19.669334-26.538666l8.533333-14.165334a264.533333 264.533333 0 0 0 14.890667-30.976z" fill="#d0240d" p-id="8497"></path><path d="M830.933333 64.042667a188.672 188.672 0 0 1 192.810667 170.666666l0.341333 11.178667v538.965333a186.837333 186.837333 0 0 1-181.418666 181.546667l-11.733334 0.341333H247.125333a187.733333 187.733333 0 0 1-193.152-181.888 47.146667 47.146667 0 0 1 93.866667-6.4l0.384 6.4a92.544 92.544 0 0 0 89.216 87.168l9.642667 0.384h583.850666a95.104 95.104 0 0 0 98.346667-79.274666l0.469333-8.277334V245.930667a92.544 92.544 0 0 0-89.216-87.168l-9.642666-0.384H247.125333A95.104 95.104 0 0 0 148.778667 237.653333l-0.469334 8.277334a47.146667 47.146667 0 0 1-94.336 0 186.837333 186.837333 0 0 1 181.418667-181.546667l11.733333-0.341333z" fill="#d0240d" p-id="8498"></path><path d="M168.832 327.125333a47.146667 47.146667 0 0 0-4.992 60.842667l4.992 5.845333 54.357333 54.229334H47.232a47.146667 47.146667 0 1 0 0 94.336h175.957333l-54.357333 54.229333a47.146667 47.146667 0 0 0-4.992 60.842667l4.992 5.845333a47.146667 47.146667 0 0 0 60.842667 4.992l5.845333-4.992 134.741333-134.741333a47.146667 47.146667 0 0 0 4.992-60.842667l-4.992-5.845333-134.741333-134.741334a47.146667 47.146667 0 0 0-66.688 0z" fill="#d0240d" p-id="8499"></path></svg>